<?xml version="1.0" encoding="UTF-8"?>
<svg version="1.1" viewBox="0 0 2048 1365" width="735" height="490" xmlns="http://www.w3.org/2000/svg">
<path transform="translate(0)" d="m0 0h2048v1365h-2048z" fill="none"/>
<path transform="translate(597,436)" d="m0 0h746l17 2 15 6 13 9 9 10 8 14 4 12 1 6v152h-27v-40l-3-5-3-2-7 1-3 4-1 42-118 1-16 3-13 5-12 7-11 9-11 14-8 16-4 14-1 9v102l3 16 5 14 8 13 10 12 12 9 16 8 13 4 7 1 164 1v152l-4 16-6 12-9 11-11 9-14 7-11 3h-198v-150l-1-19-4-12-6-11-9-10v-2l-4-2-10-8-15-9-19-8-19-6-25-5-16-2-17-1h-20l-28 2-19 3-9 1-8-11-5-6-11-9-11-7-16-8-18-7-24-6-28-4-14-1h-29l-22 2-24 4-25 7-21 9-15 9-10 8-11 11-8 13-4 12-1 7-1 216h-42l-12-3-14-7-11-9-10-13-6-13-3-14v-560l4-16 7-14 9-11 10-8 14-7 11-3z" fill="#fff"/>
<path transform="translate(766,834)" d="m0 0h43l29 4 20 5 22 8 15 8 11 8 9 8 7 11 4 11v49l-5 10-7 9-8 8-14 9-17 8-15 5-21 5-19 3-9 1h-48l-29-4-20-5-17-6-16-8-11-7-10-9-7-9-1-1 4 8 10 12 14 10 16 8 15 6 21 6 23 4 24 2h14l26-2 19-3 19-5 17-6 16-8 14-9 12-12 9-15h1v47l-1 5h1v49l-3 7-8 11-8 8-13 9-14 7-19 7-27 6-21 3-17 1h-17l-26-2-23-4-23-6-19-8-11-6-13-10-7-7-5-8 2 6 10 13 13 10 14 8 19 8 25 7 29 4 15 1h15l34-3 23-5 21-7 17-8 15-10 7-6 8-10 6-11h1v47l-1 5h1v50l-4 8-7 9-10 10-16 10-19 8-24 7-32 5-15 1h-24l-23-2-18-3-21-5-19-7-19-10-11-9-7-7-8-13-1-4v-47l3 3 4 8 11 13 11 8 14 8 19 8 21 6 22 4 22 2h22l23-2 23-4 21-6 19-8 14-8 9-7 5-4 1-2h2l2-4 6-10v-2l-6 9-9 9-13 9-16 8-21 7-21 5-24 3h-48l-26-3-17-4-19-6-16-7-12-7-10-8-8-8-7-11-1-5v-100l1-1-1-4v-101l3-10 5-9 9-10 14-10 19-10 25-8 25-5z" fill="#fff"/>
<path transform="translate(1264,664)" d="m0 0h44l125 1 12 3 14 7 9 7 8 8 8 14 4 10 2 17v91l-2 15-4 12-6 10-9 10-8 7-16 8-11 3-10 1h-61l-119-1-16-5-12-7-12-11-9-14-4-10-2-10v-108l4-15 6-12 8-10 9-8 12-7 12-4 6-1z" fill="#fff"/>
<path transform="translate(925 1e3)" d="m0 0h1v49l-3 7-8 11-8 8-13 9-14 7-19 7-27 6-21 3-17 1h-17l-26-2-23-4-23-6-19-8-11-6-13-10-7-7-5-8 2 6 10 13 13 10 14 8 19 8 25 7 29 4 15 1h15l34-3 23-5 21-7 17-8 15-10 7-6 8-10 6-11h1v47l-1 5h1v50l-4 8-7 9-10 10-16 10-19 8-24 7-32 5-15 1h-24l-23-2-18-3-21-5-19-7-19-10-11-9-7-7-8-13-1-4v-47l3 3 4 8 11 13 11 8 14 8 19 8 21 6 22 4 22 2h22l23-2 23-4 21-6 19-8 14-8 9-7 5-4 1-2h2l2-4 6-10v-2l-6 9-9 9-13 9-16 8-21 7-21 5-24 3h-48l-26-3-17-4-19-6-16-7-12-7-10-8-8-8-7-11-1-5v-100l3 3 7 12 7 8 12 9 16 9 20 8 24 6 18 3 24 2h15l26-2 22-4 19-5 20-8 13-7 11-8 4-2v-2l5-5 7-10z" fill="#fff"/>
<path transform="translate(1288,92)" d="m0 0 4 2 15 27 10 17 60 104 10 17 15 26 12 21 14 24 16 28 14 24 15 26 14 24 16 28 14 24 4 7v2l-25 14-24 14-16 9-3-1-23-86-5-18 1-5 12-13-2-6-10-17-15-26-8-16-12-44-12-45-1-3-7 1-16 4-4-1-14-24-12-21-1-3-20 4h-27l-20-4-21-8-15-9-11-9-6-5-6 2-28 16-24 14-28 16-26 15-24 14-28 16-26 15-24 14-28 16-52 30-24 14-28 16-26 15-21 12-16 5-49 13-11 1h-11v-2l18-10 24-14 52-30 28-16 24-14 28-16 24-14 52-30 28-16 24-14 26-15 28-16 24-14 26-15 21-12 52-30 21-12 45-26z" fill="#fff"/>
<path transform="translate(1363,270)" d="m0 0h3l4 13 14 53 14 52 19 70 1 5-3-3-8-11-10-10-10-7-8-5-6-21-4-17h-10l-19-3-20-6-17-9-14-10-10-9-11-14-6-9v-2l-72 19-74 20-183 49-17 4h-100l-2-2 120-32 55-15 371-99z" fill="#fff"/>
<path transform="translate(779,846)" d="m0 0h17l22 2 24 5 18 6 17 9 9 7 5 4 7 11 3 8v10l-4 11-7 9-9 8-16 9-18 7-20 5-24 3h-32l-23-3-20-5-19-7-16-9-12-11-6-10-2-7v-9l4-11 6-8 8-8 11-7 15-7 15-5 24-5z" fill="none"/>
<path transform="translate(648,949)" d="m0 0 3 4 5 10 10 12 14 10 16 8 15 6 21 6 23 4 24 2h14l26-2 19-3 19-5 17-6 16-8 14-9 12-12 9-15h1v47l-4 13-7 10-4 5h-2v2l-12 9-14 8-19 8-17 5-20 4-16 2-17 1h-15l-24-2-23-4-21-6-20-8-16-9-12-10-8-10-5-9-2-8z" fill="#fff"/>
<path transform="translate(648,1161)" d="m0 0 2 3 6 11 8 10 14 11 17 9 25 9 21 5 23 3 18 1h11l27-2 23-4 21-6 19-8 16-9 13-11 9-12 4-8h1v46l-3 10-6 10-8 9-12 9-17 9-22 8-21 5-29 4h-43l-28-4-24-6-19-7-17-9-10-8-4-3v-2h-2l-8-11-4-9-1-4z" fill="#fff"/>
<path transform="translate(1305,712)" d="m0 0h12l12 2 12 5 11 7 10 10 7 11 5 14 1 5v20l-4 15-8 14-6 7-12 9-12 6-12 3h-18l-16-4-13-7-12-11-9-14-4-11-2-9v-15l4-17 6-11 7-9 10-9 16-8z" fill="#fff"/>
<path transform="translate(982,887)" d="m0 0h38l26 3 22 5 21 7 16 8 14 9 7 6 9 12 4 9 1 5v44l-2 9-7 11-11 11-14 9-17 8-22 7-19 4-24 3h-45l-25-3-10-2-1-2v-44l9 1 22 4 10 1h34l22-3 21-5 18-7 16-9 10-9 6-9 3-9v-9l-4-11-6-8-7-7-15-9-14-6-16-5-30-5-11-1h-18l-22 2-27 5-1-1v-13l6-2 21-3z" fill="#fff"/>
<path transform="translate(1138,1110)" d="m0 0h2v46l-3 11-7 10-6 7-12 9-16 9-21 8-24 6-20 3-10 1h-40l-31-4-7-2v-49h7l17 3 22 2h20l26-2 25-5 18-5 21-9 15-9 10-9h2l2-4 7-10z" fill="#fff"/>
<path transform="translate(1139 1e3)" d="m0 0h1v45l-2 8-7 11-11 11-14 9-17 8-15 5-26 6-21 3-16 1h-18l-26-2-20-3-4-2v-45l2-1 23 4 26 2h15l26-2 25-5 20-6 19-8 15-9 11-9 7-9z" fill="#fff"/>
<path transform="translate(1139,1057)" d="m0 0h1v45l-2 8-9 13-8 8-13 9-14 7-27 9-18 4-24 3h-48l-30-4-4-2v-45l12 1 23 3 14 1h16l25-2 24-4 23-7 17-7 14-8 9-7 5-4 7-9z" fill="#fff"/>
<path transform="translate(1298,695)" d="m0 0h26l13 3 17 8 12 9 7 7 10 14 6 14 4 18v16l-3 15-5 13-7 12-11 12-11 9-14 7-16 5-8 1h-13l-16-3-13-5-11-6-11-9-8-9-8-13-6-15-2-9-1-16 2-15 5-15 6-11 7-9 12-12 13-8 12-5zm7 17-15 3-16 8-12 11-9 14-4 11-2 10v15l4 16 6 11 8 10 9 8 16 8 13 3h18l12-3 12-6 9-7 5-5 6-7 7-14 3-12v-20l-3-12-7-14-11-12-9-7-13-6-7-2-8-1z" fill="none"/>
<path transform="translate(994,909)" d="m0 0h14v8l14 2 13 4 8 6 4 9-1 2h-22l-3-6v-2l-9-3-4-1v21l17 3 12 4 8 5 3 4 1 8-3 8-8 6-11 4-10 2h-9v10h-14v-10h-8l-15-3-9-4-7-6-2-6v-5h22l5 9 9 4 5 1-1-24-22-5-10-5-4-6v-10l4-6 12-6 19-4h2z" fill="#fff"/>
<path transform="translate(781,856)" d="m0 0h12l1 3 1 5 19 3 12 6 5 6 1 7-1 1h-21l-3-7-12-5h-1v21l17 3 10 3 8 4 5 6 1 10-3 6-6 5-12 5-20 3-1 9h-13v-10h-8l-15-3-12-6-4-5-2-4v-6h23l3 8 8 4 7 1v-23l-21-4-12-6-4-6-1-6 3-7 7-6 10-4 18-3v-7z" fill="#fff"/>
<path transform="translate(998,314)" d="m0 0h27l21 4 20 7 8 4-3 2-138 37-11 2 5-10 8-11 11-12 14-10 17-8 15-4z" fill="#fff"/>
<path transform="translate(1428,504)" d="m0 0 2 3 17 64 23 85 1 6-19-9-15-4-9-2z" fill="#fff"/>
<path transform="translate(650,1112)" d="m0 0 3 1 6 9 8 8 15 10 17 8 15 5 19 5 20 3 11 1h48l29-4 23-6 16-6 16-8 13-10 7-7 6-9 1 3-6 10-3 4h-2l-2 4-10 8-15 9-18 8-20 6-20 4-16 2-14 1h-22l-29-3-22-5-17-5-18-8-14-8-13-11-10-13z" fill="none"/>
<path transform="translate(923 1e3)" d="m0 0 1 2-5 10-8 10h-2v2l-12 9-14 8-19 8-17 5-20 4-16 2-17 1h-15l-24-2-23-4-21-6-20-8-16-9-12-10-8-10-5-9 1-2 10 13 10 9 13 8 15 7 22 7 25 5 18 2h46l25-3 18-4 25-8 21-11 10-8 7-7z" fill="none"/>
<path transform="translate(650,951)" d="m0 0 3 3 7 10 7 7 15 10 17 8 18 6 23 5 23 3h48l23-3 22-5 16-5 16-7 11-6 10-8 7-7 5-6 1 2-7 10-12 12-18 11-16 7-22 7-21 4-18 2-15 1h-14l-31-3-24-5-24-8-16-8-14-9-7-6-8-10-5-10z" fill="none"/>
<path transform="translate(651,1059)" d="m0 0 4 4 6 8 10 9 13 8 15 7 18 6 28 6 17 2 17 1h17l25-2 23-4 20-5 23-9 15-9 13-12 6-5-2 5-9 11-10 8-15 9-16 7-22 7-19 4-34 3h-15l-24-2-24-4-21-6-21-9-14-8-13-11-9-12-2-4z" fill="none"/>
<path transform="translate(649,1161)" d="m0 0 4 5 6 9 8 8 13 9 21 10 23 7 21 4 16 2 14 1h24l23-2 24-4 24-7 21-9 15-10 11-11 5-6 1 2-7 10-8 9-11 8-16 9-20 8-23 6-18 3-27 2h-11l-27-2-19-3-19-5-22-8-17-9-14-11-7-8-6-10-2-4z" fill="none"/>
<path transform="translate(1179,1071)" d="m0 0h39l5 3 2 3v7l-5 5h-42l-5-5-1-5 3-5z" fill="none"/>
<path transform="translate(877,463)" d="m0 0h40l5 3 2 4-1 6-4 4-3 1h-38l-5-3-2-4 1-7z" fill="none"/>
<path transform="translate(1257,1071)" d="m0 0h37l5 2 3 3 1 6-4 6-2 1h-41l-6-5v-7z" fill="none"/>
<path transform="translate(954,463)" d="m0 0h40l6 4 1 2v6l-5 5-2 1h-39l-6-5-1-6 3-5z" fill="none"/>
<path transform="translate(1032,463)" d="m0 0h38l6 3 2 3v6l-4 5-4 1h-37l-5-3-3-4 1-6 4-4z" fill="none"/>
<path transform="translate(1372,907)" d="m0 0 7 1 4 4 1 5v33l-2 6-5 4-7-1-4-5v-41l5-5z" fill="none"/>
<path transform="translate(1186,463)" d="m0 0h39l5 3 2 3v6l-4 5-3 1h-38l-5-3-3-5 2-6z" fill="none"/>
<path transform="translate(801,463)" d="m0 0h38l5 3 2 2v8l-4 4-3 1h-39l-5-4-1-2v-6l4-5z" fill="none"/>
<path transform="translate(723,463)" d="m0 0h39l5 3 2 2v8l-4 4-3 1h-38l-5-3-2-3v-6l4-5z" fill="none"/>
<path transform="translate(646,463)" d="m0 0h37l6 2 3 3v8l-6 5h-39l-5-3-2-3v-7z" fill="none"/>
<path transform="translate(1263,463)" d="m0 0h39l5 3 2 2v7l-4 5-3 1h-38l-5-3-2-3v-6l4-5z" fill="none"/>
<path transform="translate(1110,463)" d="m0 0h37l5 2 3 4v6l-4 5-3 1h-38l-5-3-2-2v-8l4-4z" fill="none"/>
<path transform="translate(1372,522)" d="m0 0 7 1 4 4 1 4v34l-3 7-4 3-6-1-5-5v-41l4-5z" fill="none"/>
<path transform="translate(1371,985)" d="m0 0h7l5 4 1 4v32l-1 7-5 5h-6l-5-4-1-2v-41z" fill="none"/>
<path transform="translate(568,1054)" d="m0 0h6l5 5 7 8 7 3 10 2 5 5 1 4-4 6-3 2h-9l-10-3-10-6-8-9-3-6 1-7z" fill="none"/>
<path transform="translate(1340,463)" d="m0 0h8l9 2 12 7 8 9 3 6-1 7-5 4h-6l-5-5-7-8-8-3-10-2-4-5v-6l4-5z" fill="none"/>
<path transform="translate(594,463)" d="m0 0h14l5 3 2 3v6l-4 5-4 1-13 1-7 3-9 7-4 1-5-3-3-4 1-7 5-6 11-7z" fill="none"/>
<path transform="translate(1364,1060)" d="m0 0h7l5 6-1 7-7 8-14 7-5 1h-16l-5-4-1-7 2-4 6-3 14-1 8-4z" fill="none"/>
<path transform="translate(565,592)" d="m0 0 7 1 4 4v42l-5 5-6 1-6-5-1-38 2-6z" fill="none"/>
<path transform="translate(565,746)" d="m0 0 7 1 4 5v42l-6 5h-5l-6-5v-43z" fill="none"/>
<path transform="translate(566,823)" d="m0 0 6 1 4 5v42l-6 5-7-1-4-4v-43l5-4z" fill="none"/>
<path transform="translate(565,515)" d="m0 0 7 1 4 4v42l-4 5-6 1-5-3-2-3v-42z" fill="none"/>
<path transform="translate(564,901)" d="m0 0h7l5 5v42l-5 5h-6l-5-3-1-2v-43z" fill="none"/>
<path transform="translate(567,977)" d="m0 0 7 3 2 3v42l-5 5h-6l-6-5v-42l5-5z" fill="none"/>
<path transform="translate(564,670)" d="m0 0h7l5 5v41l-4 5-7 1-6-5v-43z" fill="none"/>
<path transform="translate(1e3 409)" d="m0 0h18l13 2 20 6-1 2h-79l-2-2 18-6z" fill="#fff"/>
<path transform="translate(794,908)" d="m0 0 10 3 6 3 2 3v6l-6 5-6 2h-6z" fill="none"/>
<path transform="translate(1008,962)" d="m0 0 8 1 8 5 2 2v6l-6 5-6 2h-6z" fill="none"/>
<path transform="translate(775,875)" d="m0 0h5l1 17-5 1-10-5-1-1 1-7 7-4z" fill="none"/>
<path transform="translate(989,928)" d="m0 0h5v18l-7-1-8-5 1-7 6-4z" fill="none"/>
</svg>
