<?xml version="1.0" encoding="UTF-8"?>
<svg version="1.1" viewBox="0 0 1456 1724" width="364" height="431" xmlns="http://www.w3.org/2000/svg">
<path transform="translate(0)" d="m0 0h1456v1724h-1456z" fill="none"/>
<path transform="translate(104,511)" d="m0 0h1091l15 3 14 5 14 8 9 7 8 7 11 15 8 16 4 13 2 13v215h-38l-1-60-1-4-8-4h-6l-6 4-3 7v57l-167 1-16 2-15 4-18 8-14 9-14 12-9 10-10 15-9 19-5 18-2 16v142l2 17 4 14 6 15 8 14 9 12 14 14 15 11 19 9 20 6 14 2h230l1 1v216l-3 16-6 16-7 12-9 11-9 9-15 10-16 7-15 4h-282l-1-236-3-14-6-15-7-11-8-10-12-12-18-13-24-13-25-10-24-7-28-6-22-3-28-2h-35l-31 2-28 4-13 3h-5l-8-12-11-12-8-8-15-11-21-12-24-10-25-8-22-5-33-5-22-2h-51l-29 3-30 5-21 5-30 10-23 11-17 11-12 9-17 17-9 14-5 10-4 13-1 6-1 314-1 1h-42l-16-1-17-4-16-7-12-8-10-9-9-10-8-13-6-15-4-18v-804l3-16 6-16 7-12 8-10 12-12 14-9 13-6 14-4z" fill="#fff"/>
<path transform="translate(1060,838)" d="m0 0h241l17 2 17 5 15 8 13 10 11 11 9 14 6 13 4 14 1 7v152l-3 16-5 13-6 11-7 9-9 10-13 10-15 8-15 5-10 2h-264l-15-3-15-6-13-7-11-9-10-11-9-14-6-12-4-15-1-7v-151l3-15 6-16 7-12 7-9 12-12 17-11 19-7 12-2z" fill="#fff"/>
<path transform="translate(377,1081)" d="m0 0h22l20 1 31 4 24 5 21 6 21 8 16 8 14 8 12 9 10 9 8 11 6 12 3 11v69l-4 10-9 13-10 11-16 12-17 10-28 11-24 7-24 5-31 4-15 1h-41l-27-2-36-6-30-8-25-10-19-10-14-10-10-9-9-11-9-16-1-8v-57l3-16 8-16 9-10 12-11 17-11 17-9 24-9 21-6 30-6 27-3z" fill="none"/>
<path transform="translate(1105,16)" d="m0 0 4 1 14 24 14 25 12 21 15 26 14 24 30 52 28 48 20 35 13 22 14 25 9 15 16 28 15 26 14 24 15 26 12 21 14 24 30 52 16 28 9 15 6 11v3l-20 11-21 12-29 17-24 14-3-3-9-33-10-38-11-40-9-34-1-8 6-8 13-14-2-6-9-15-16-28-14-24-9-17-8-30-15-55-8-31-6-20-6 1-27 7h-5l-7-13-16-27-12-21-5-8-3-1-17 4-15 2h-23l-23-3-19-5-19-7-19-10-13-9-11-9-10-9-14 7-24 14-14 8-24 14-23 13-24 14-28 16-20 12-25 14-24 14-52 30-24 14-26 15-28 16-23 13-22 13-21 12-26 15-21 12-17 10-49 28-17 10-18 10-18 6-56 15-24 6h-28l3-3 20-11 22-13 28-16 24-14 21-12 24-14 25-14 43-25 26-15 24-14 26-15 28-16 130-75 24-14 25-14 22-13 24-14 21-12 26-15 24-14 23-13 17-10 21-12 24-14 25-14 17-10 28-16 27-16z" fill="#fff"/>
<path transform="translate(583,1325)" d="m0 0h2v67l-3 10-7 11-8 10-8 8-17 12-21 11-28 10-28 7-29 5-19 2-21 1h-16l-35-2-28-4-28-6-19-6-16-6-19-9-15-10-11-9-9-9-11-17 5 13 8 11 9 10 12 10 13 8 17 9 20 8 30 9 25 5 26 3 13 1h36l35-3 24-4 28-8 19-7 20-9 13-8 11-8 6-5h2v-2l5-5 8-9 9-17h2v67l-5 12-12 16-9 9-15 11-14 8-27 11-32 9-21 4-25 3-12 1h-53l-24-2-27-4-24-6-27-9-18-8-18-11-13-11-5-4-8-10-9-14-1-13v-107l1-29 4 5 5 10 13 16 10 9 14 9 18 10 28 11 21 6 29 6 26 3 14 1h31l30-2 28-5 26-6 20-7 18-8 17-9 12-8 10-9 10-10 6-10z" fill="#fff"/>
<path transform="translate(1213,272)" d="m0 0h4l6 21 16 60 11 41 14 52 17 63 9 34 1 7-3-4-9-14-9-10-8-7-13-10-12-7-3-5-11-42-3-8-23-2-25-5-21-7-19-9-18-12-13-11-14-14-12-16-8-12-4-1-24 7-31 8-60 16-44 12-31 8-48 13-56 15-49 13-48 13-63 17-36 9h-149l1-2 210-56 44-12 198-53 112-30 217-58z" fill="#fff"/>
<path transform="translate(377,1081)" d="m0 0h22l20 1 31 4 24 5 21 6 21 8 16 8 14 8 12 9 10 9 8 11 6 12 3 11v69l-4 10-9 13-10 11-16 12-17 10-28 11-24 7-24 5-31 4-15 1h-41l-27-2-36-6-30-8-25-10-19-10-14-10-10-9-9-11-9-16-1-8v-57l3-16 8-16 9-10 12-11 17-11 17-9 24-9 21-6 30-6 27-3zm-6 18-32 3-24 5-21 6-20 8-17 9-12 9-13 13-8 15-2 9v10l4 13 7 12 13 13 13 9 19 10 29 10 28 6 24 3 16 1h22l26-2 24-4 24-6 22-8 21-11 11-8 10-9 9-13 4-9 1-4v-17l-5-13-8-11-9-9-16-11-15-8-21-8-22-6-21-4-28-3z" fill="#fff"/>
<path transform="translate(187,1553)" d="m0 0 3 4 7 14 8 10 11 11 16 11 16 9 25 10 25 8 28 6 25 3 13 1h41l27-2 30-5 26-7 24-9 19-9 10-6 12-8 12-11 11-14 8-16h1v67l-3 12-5 10-10 13-7 7-13 10-17 10-20 9-30 10-22 5-27 4-21 2h-47l-23-2-27-4-28-7-26-9-21-10-16-10-10-8-12-12-9-14-4-12-1-9v-61z" fill="#fff"/>
<path transform="translate(187,1478)" d="m0 0 3 4 5 10 9 12 10 10 15 11 18 10 15 7 22 8 32 8 25 4 21 2h48l29-3 30-6 22-6 19-7 17-8 16-9 13-10 3-3h2v-2l5-5h2l2-4 6-9 7-14h2v68l-5 12-8 12-8 9-17 13-13 8-17 8-20 7-21 6-31 6-23 3-15 1h-40l-33-3-25-4-25-6-21-7-15-6-19-10-11-8-14-12-9-12-8-13-1-12v-36z" fill="#fff"/>
<path transform="translate(187,1247)" d="m0 0 2 3 8 16 8 10v2h2l5 6 13 10 17 10 21 10 30 10 26 6 29 4 24 2h28l35-3 24-4 23-6 24-8 18-8 15-8 14-10 10-9 9-10 6-9 5-11h2v67l-2 7-6 10-9 12-13 12-15 10-16 8-14 6-32 10-24 5-22 3-27 2h-40l-27-2-32-5-23-6-24-8-18-8-14-8-12-9-10-9-10-12-6-9v-2h-2l-1-13v-36z" fill="#fff"/>
<path transform="translate(1126,907)" d="m0 0h25l14 3 13 5 11 6 10 8 7 6 8 10 8 14 5 13 3 16v22l-3 14-6 16-9 14-7 9-11 9-13 8-13 6-18 4h-22l-16-3-13-5-14-8-10-8-7-8-7-9-8-14-5-17-2-13v-12l3-19 5-14 8-14 7-9 10-10 10-7 16-8 15-4z" fill="#fff"/>
<path transform="translate(686,1157)" d="m0 0h17l29 2 30 4 26 6 19 6 16 6 20 10 18 12 12 11 7 8 8 13 3 9 1 5v65l-2 10-9 15-12 13-11 9-13 8-16 8-18 7-26 8-18 4-28 4-26 2h-42l-32-3-25-4-3-1-1-2v-64l11 2 32 6 24 2h33l29-3 29-6 20-6 23-10 18-11 12-11 7-9 6-12 2-9v-7l-3-12-7-13-11-12-16-11-21-11-20-7-19-5-31-5-19-2h-31l-22 2-30 5-12 3-4-1-1-18 9-3 26-4 21-2z" fill="#fff"/>
<path transform="translate(890,1478)" d="m0 0 2 1v66l-3 11-5 10-9 12-9 9-14 10-15 9-29 12-23 7-22 5-27 4-23 2h-39l-25-2-23-3-16-4v-71l13 2 24 4 22 2h45l31-3 27-5 25-7 27-10 19-10 16-10 7-7 6-5 8-10 7-12z" fill="#fff"/>
<path transform="translate(891,1326)" d="m0 0h1v67l-3 9-7 11-8 10-7 7-13 10-18 10-19 8-20 7-30 7-32 5-32 2h-14l-25-1-27-3-25-4-2-3v-64l11 1 20 4 35 3h33l37-3 34-7 17-5 28-11 21-11 16-11 10-9 9-11z" fill="#fff"/>
<path transform="translate(891,1402)" d="m0 0h1v64l-2 9-8 14-8 10-9 9-14 10-16 9-25 10-31 9-36 6-21 2h-55l-31-3-25-4-1-1v-66l32 5 32 3h35l35-3 25-4 28-8 27-10 19-10 11-7 11-9 7-6 10-13 8-15z" fill="#fff"/>
<path transform="translate(1134,881)" d="m0 0 22 1 17 4 16 6 17 10 11 9 10 10 11 15 8 15 6 17 3 15 1 8v12l-2 17-5 19-9 19-7 10-9 11-13 12-15 10-21 9-13 4-17 2h-14l-15-2-15-4-17-7-16-10-12-11-8-8-9-13-7-12-6-15-4-16-1-9v-22l3-18 7-19 7-13 10-14 16-16 13-9 15-8 17-6 11-2zm-8 26-18 4-16 7-14 10-12 12-11 18-5 13-3 13-1 9v12l3 17 5 15 9 15 9 10 5 5 8 7 16 9 15 5 12 2h22l18-4 17-8 14-10 7-6 11-15 7-14 5-17 1-6v-22l-3-16-5-13-6-11-7-9-6-7-14-11-15-8-17-5-6-1z" fill="none"/>
<path transform="translate(690,1189)" d="m0 0h12l1 4v8l21 3 14 4 8 4 9 8 3 8v5l-3 1h-18l-11-1-5-9-5-4-13-4v29l3 2 21 4 18 6 10 6 5 6 1 3v12l-3 7-4 5-10 6-14 5-26 4-1 1-1 12h-19v-14l-15-1-16-3-15-6-10-9-2-4-1-11 2-1h28l3 2 4 10 8 5 10 3h3v-33l-4-2-24-5-13-5-9-8-3-8 1-10 5-8 9-6 14-5 23-4 2-1v-10z" fill="#fff"/>
<path transform="translate(376,1114)" d="m0 0h19v11l23 3 13 4 11 6 7 8 2 5-1 6-1 1h-28l-4-4-1-7-5-2-13-5h-2v30l32 7 13 5 9 7 4 7v13l-5 8-8 7-11 5-20 4-15 1v14h-19v-14l-21-2-16-4-8-4-9-7-5-10v-7l1-1h32l1 1 2 10 9 6 14 4v-35l-25-5-10-3-11-6-6-7-2-4v-9l3-7 7-7 12-6 11-3 22-3z" fill="#fff"/>
<path transform="translate(689,335)" d="m0 0h38l19 3 25 7 17 7 9 4v2l-96 26-109 29-12 2 3-7 12-19 9-10 5-6 11-9 11-8 14-8 17-7 21-5z" fill="#fff"/>
<path transform="translate(1305,607)" d="m0 0 2 1 4 13 13 49 15 56 14 52 13 48 1 8-5-2-17-9-15-5-24-5z" fill="#fff"/>
<path transform="translate(188,1248)" d="m0 0h2l10 16 11 12 13 10 16 9 17 8 19 7 32 8 31 5 27 2h41l25-2 32-5 28-7 25-9 13-6 18-10 11-9 9-8 8-11 6-8 1 3-6 11-10 13-11 11-14 10-16 9-15 7-20 7-19 6-25 5-20 3-27 2h-28l-32-3-26-4-25-6-26-9-23-11-15-9-16-13-2-4h-2l-11-15-6-13z" fill="none"/>
<path transform="translate(949,1422)" d="m0 0h56l5 3 4 4 1 3v7l-4 6-6 3h-57l-5-3-4-7v-7l6-7z" fill="none"/>
<path transform="translate(1061,1422)" d="m0 0h53l6 2 5 6 1 2v7l-5 7-6 2h-55l-6-3-4-6v-7l4-6 3-3z" fill="none"/>
<path transform="translate(1227,1186)" d="m0 0 6 1 8 5 1 2v60l-5 6-4 2h-8l-5-3-4-8v-49l1-8 5-5z" fill="none"/>
<path transform="translate(1225,1298)" d="m0 0h8l5 3 4 5v58l-3 5-7 5-7-1-7-6-2-8v-51l5-8z" fill="none"/>
<path transform="translate(1227,633)" d="m0 0 8 1 5 4 2 4v59l-4 5-7 4-7-2-5-4-3-8v-50l3-7 4-4z" fill="none"/>
<path transform="translate(515,549)" d="m0 0h58l5 3 4 6v7l-6 8-2 1-29 1h-25l-7-2-6-7-1-7 3-5z" fill="none"/>
<path transform="translate(1217,1405)" d="m0 0 8 2 5 5 1 2v9l-7 9-10 8-14 6-9 2h-20l-6-3-4-7 1-8 5-6 5-2 19-1 9-3 10-9 4-3z" fill="none"/>
<path transform="translate(72,1397)" d="m0 0h6l6 3 8 11 8 7 9 3 10 1 6 4 4 5 1 5-4 8-4 3-4 1h-8l-16-4-11-6-12-11-6-10-2-4v-7l6-7z" fill="none"/>
<path transform="translate(625,549)" d="m0 0h58l6 3 3 4 1 9-3 5-5 4-55 1-7-2-5-6-1-2 1-9z" fill="none"/>
<path transform="translate(1180,549)" d="m0 0h12l12 3 12 6 12 11 7 10 2 4v7l-4 6-6 3h-7l-7-6-6-9-9-6-6-2-13-2-6-5-2-4v-8l6-7z" fill="none"/>
<path transform="translate(69,955)" d="m0 0 7 1 5 4 2 4v60l-5 5-4 3-7-1-7-5-2-3v-60l5-5z" fill="none"/>
<path transform="translate(70,1287)" d="m0 0 7 2 5 5 2 7-1 55-7 7h-8l-6-3-4-5v-59l5-6z" fill="none"/>
<path transform="translate(67,1177)" d="m0 0 9 1 6 5 1 2v59l-4 6-6 3-7-1-7-6-1-2v-60l5-5z" fill="none"/>
<path transform="translate(294,549)" d="m0 0h58l5 3 3 5 1 7-4 7-5 3-49 1-10-1-6-5-2-4v-7l7-8z" fill="none"/>
<path transform="translate(109,549)" d="m0 0h20l6 3 3 4 1 9-3 5-3 3-3 1-22 2-10 4-10 9-6 3-7-2-6-7-1-6 4-8 11-10 14-7z" fill="none"/>
<path transform="translate(958,549)" d="m0 0h57l6 3 4 6v7l-3 5-5 4h-59l-6-4-3-5v-6l4-6z" fill="none"/>
<path transform="translate(67,734)" d="m0 0 9 1 6 5 1 2v59l-3 5-8 5-6-2-7-5-1-3v-58l7-8z" fill="none"/>
<path transform="translate(1070,549)" d="m0 0h56l7 4 3 7-1 7-5 6-2 1h-60l-6-5-2-4v-6l4-6 3-3z" fill="none"/>
<path transform="translate(737,549)" d="m0 0h55l7 3 4 4 1 7-4 8-5 3h-59l-7-6-2-7 3-6 5-5z" fill="none"/>
<path transform="translate(404,549)" d="m0 0h57l6 3 4 5v8l-3 6-5 3h-60l-5-5-2-4v-7l4-6z" fill="none"/>
<path transform="translate(184,549)" d="m0 0h51l10 2 4 5 1 9-6 8-2 1h-60l-5-5-3-4 1-9 4-5z" fill="none"/>
<path transform="translate(849,549)" d="m0 0h55l5 2 4 5 1 2v8l-4 6-4 2h-59l-7-6-1-2v-8l3-6z" fill="none"/>
<path transform="translate(69,623)" d="m0 0 7 2 7 6v59l-3 5-4 4h-10l-5-4-3-5v-57l4-6z" fill="none"/>
<path transform="translate(68,1066)" d="m0 0 8 1 7 7v60l-5 6-8 2-6-2-5-5-1-3v-57l3-5z" fill="none"/>
<path transform="translate(65,846)" d="m0 0h10l5 3 3 4v60l-8 7-7 1-8-5-2-4v-59l5-6z" fill="none"/>
<path transform="translate(703,471)" d="m0 0h14l19 2 28 8 6 2-1 2h-117l3-3 18-6 15-3z" fill="#fff"/>
<path transform="translate(396,1188)" d="m0 0 11 3 9 4 6 6v7l-5 6-9 4-11 2-2-2v-29z" fill="none"/>
<path transform="translate(703,1265)" d="m0 0 9 1 12 6 5 5v7l-6 7-11 4-8 1-2-2v-26z" fill="none"/>
<path transform="translate(371,1140)" d="m0 0h5l1 25-1 2-9-2-10-5-4-5 3-7 6-5z" fill="none"/>
<path transform="translate(678,1216)" d="m0 0 5 1v26l-7-1-12-6-3-4v-5l5-6 8-4z" fill="none"/>
</svg>
